ffmpeg version 4.2.7-0ubuntu0.1 Copyright (c) 2000-2022 the FFmpeg developers
  built with gcc 9 (Ubuntu 9.4.0-1ubuntu1~20.04.1)
  configuration: --prefix=/usr --extra-version=0ubuntu0.1 --toolchain=hardened --libdir=/usr/lib/x86_64-linux-gnu --incdir=/usr/include/x86_64-linux-gnu --arch=amd64 --enable-gpl --disable-stripping --enable-avresample --disable-filter=resample --enable-avisynth --enable-gnutls --enable-ladspa --enable-libaom --enable-libass --enable-libbluray --enable-libbs2b --enable-libcaca --enable-libcdio --enable-libcodec2 --enable-libflite --enable-libfontconfig --enable-libfreetype --enable-libfribidi --enable-libgme --enable-libgsm --enable-libjack --enable-libmp3lame --enable-libmysofa --enable-libopenjpeg --enable-libopenmpt --enable-libopus --enable-libpulse --enable-librsvg --enable-librubberband --enable-libshine --enable-libsnappy --enable-libsoxr --enable-libspeex --enable-libssh --enable-libtheora --enable-libtwolame --enable-libvidstab --enable-libvorbis --enable-libvpx --enable-libwavpack --enable-libwebp --enable-libx265 --enable-libxml2 --enable-libxvid --enable-libzmq --enable-libzvbi --enable-lv2 --enable-omx --enable-openal --enable-opencl --enable-opengl --enable-sdl2 --enable-libdc1394 --enable-libdrm --enable-libiec61883 --enable-nvenc --enable-chromaprint --enable-frei0r --enable-libx264 --enable-shared
  libavutil      56. 31.100 / 56. 31.100
  libavcodec     58. 54.100 / 58. 54.100
  libavformat    58. 29.100 / 58. 29.100
  libavdevice    58.  8.100 / 58.  8.100
  libavfilter     7. 57.100 /  7. 57.100
  libavresample   4.  0.  0 /  4.  0.  0
  libswscale      5.  5.100 /  5.  5.100
  libswresample   3.  5.100 /  3.  5.100
  libpostproc    55.  5.100 / 55.  5.100
Routing option strict to both codec and muxer layer
[mov,mp4,m4a,3gp,3g2,mj2 @ 0x559cfe6bc200] stream 0, timescale not set
[h264 @ 0x559cfe6c4600] Reinit context to 1280x720, pix_fmt: yuv420p
Input #0, mov,mp4,m4a,3gp,3g2,mj2, from '/var/www/html/project/media/video/original/Faenza.m4v':
  Metadata:
    major_brand     : M4V 
    minor_version   : 1
    compatible_brands: M4V M4A isommp42
    creation_time   : 2023-05-18T12:07:14.000000Z
    title           : Faenza
    keywords        : 3-05-23
    artist          : CoEmPiemonte
  Duration: 00:00:49.73, start: 0.000000, bitrate: 7141 kb/s
    Stream #0:0(eng): Audio: aac (LC) (mp4a / 0x6134706D), 48000 Hz, stereo, fltp, 117 kb/s (default)
    Metadata:
      creation_time   : 2023-05-18T12:07:14.000000Z
      handler_name    : Core Media Audio
    Stream #0:1(und): Video: h264 (High), 1 reference frame (avc1 / 0x31637661), yuv420p(tv, bt709, progressive, left), 1280x720, 6992 kb/s, SAR 1:1 DAR 16:9, 30 fps, 30 tbr, 30k tbn, 60k tbc (default)
    Metadata:
      creation_time   : 2023-05-18T12:07:14.000000Z
      handler_name    : Core Media Video
    Stream #0:2: Video: mjpeg (Progressive), 1 reference frame, yuvj420p(pc, bt470bg/unknown/unknown, center), 1280x720 [SAR 72:72 DAR 16:9], 90k tbr, 90k tbn, 90k tbc (attached pic)
Input #1, png_pipe, from '/var/www/html/project/static/images/templates/logo.png':
  Duration: N/A, bitrate: N/A
    Stream #1:0: Video: png, 1 reference frame, rgba(pc), 1920x1080 [SAR 2835:2835 DAR 16:9], 25 tbr, 25 tbn, 25 tbc
[Parsed_scale_0 @ 0x559cfe744040] w:1280 h:720 flags:'bilinear' interl:0
[Parsed_scale_2 @ 0x559cfe73ff40] w:1280 h:720 flags:'bilinear' interl:0
Stream mapping:
  Stream #0:1 (h264) -> scale (graph 0)
  Stream #1:0 (png) -> scale (graph 0)
  overlay (graph 0) -> Stream #0:0 (libx264)
  Stream #0:0 -> #0:1 (aac (native) -> aac (native))
Press [q] to stop, [?] for help
[graph_1_in_0_0 @ 0x559cfe73b580] tb:1/48000 samplefmt:fltp samplerate:48000 chlayout:0x3
[h264 @ 0x559cfe727f00] Reinit context to 1280x720, pix_fmt: yuv420p
[Parsed_scale_0 @ 0x559cfe749880] w:1280 h:720 flags:'bilinear' interl:0
[Parsed_scale_2 @ 0x559cff0e58c0] w:1280 h:720 flags:'bilinear' interl:0
[graph 0 input from stream 0:1 @ 0x559cfe74c080] w:1280 h:720 pixfmt:yuv420p tb:1/30000 fr:30/1 sar:1/1 sws_param:flags=2
[graph 0 input from stream 1:0 @ 0x559cff088980] w:1920 h:1080 pixfmt:rgba tb:1/25 fr:25/1 sar:2835/2835 sws_param:flags=2
[Parsed_scale_0 @ 0x559cfe749880] w:1280 h:720 fmt:yuv420p sar:1/1 -> w:1280 h:720 fmt:yuv420p sar:1/1 flags:0x2
[Parsed_setsar_1 @ 0x559cff0e5b80] w:1280 h:720 sar:1/1 dar:16/9 -> sar:1/1 dar:16/9
[Parsed_scale_2 @ 0x559cff0e58c0] w:1920 h:1080 fmt:rgba sar:2835/2835 -> w:1280 h:720 fmt:yuva420p sar:1/1 flags:0x2
[Parsed_setsar_3 @ 0x559cfe74a8c0] w:1280 h:720 sar:1/1 dar:16/9 -> sar:1/1 dar:16/9
[Parsed_overlay_4 @ 0x559cfe74b300] main w:1280 h:720 fmt:yuv420p overlay w:1280 h:720 fmt:yuva420p
[Parsed_overlay_4 @ 0x559cfe74b300] [framesync @ 0x559cfe74b428] Selected 1/30000 time base
[Parsed_overlay_4 @ 0x559cfe74b300] [framesync @ 0x559cfe74b428] Sync level 2
[libx264 @ 0x559cfe733880] using SAR=1/1
[libx264 @ 0x559cfe733880] using cpu capabilities: MMX2 SSE2Fast SSSE3 SSE4.2 AVX FMA3 BMI2 AVX2
[libx264 @ 0x559cfe733880] profile High, level 3.1
[libx264 @ 0x559cfe733880] 264 - core 155 r2917 0a84d98 - H.264/MPEG-4 AVC codec - Copyleft 2003-2018 - http://www.videolan.org/x264.html - options: cabac=1 ref=1 deblock=1:0:0 analyse=0x3:0x113 me=hex subme=2 psy=1 psy_rd=1.00:0.00 mixed_ref=0 me_range=16 chroma_me=1 trellis=0 8x8dct=1 cqm=0 deadzone=21,11 fast_pskip=1 chroma_qp_offset=0 threads=22 lookahead_threads=5 sliced_threads=0 nr=0 decimate=1 interlaced=0 bluray_compat=0 constrained_intra=0 bframes=3 b_pyramid=2 b_adapt=1 b_bias=0 direct=1 weightb=1 open_gop=0 weightp=1 keyint=250 keyint_min=25 scenecut=40 intra_refresh=0 rc_lookahead=10 rc=crf mbtree=1 crf=18.0 qcomp=0.60 qpmin=0 qpmax=69 qpstep=4 ip_ratio=1.40 aq=1:1.00
Output #0, mp4, to '/var/www/html/project/media/video/watermarks/Faenza.mp4':
  Metadata:
    major_brand     : M4V 
    minor_version   : 1
    compatible_brands: M4V M4A isommp42
    artist          : CoEmPiemonte
    title           : Faenza
    keywords        : 3-05-23
    encoder         : Lavf58.29.100
    Stream #0:0: Video: h264 (libx264), 1 reference frame (avc1 / 0x31637661), yuv420p, 1280x720 [SAR 1:1 DAR 16:9], q=-1--1, 30 fps, 15360 tbn, 30 tbc (default)
    Metadata:
      encoder         : Lavc58.54.100 libx264
    Side data:
      cpb: bitrate max/min/avg: 0/0/0 buffer size: 0 vbv_delay: -1
    Stream #0:1(eng): Audio: aac (LC) (mp4a / 0x6134706D), 48000 Hz, stereo, fltp, delay 1024, 128 kb/s (default)
    Metadata:
      creation_time   : 2023-05-18T12:07:14.000000Z
      handler_name    : Core Media Audio
      encoder         : Lavc58.54.100 aac
[Parsed_overlay_4 @ 0x559cfe74b300] [framesync @ 0x559cfe74b428] Sync level 0
No more output streams to write to, finishing.
frame= 1492 fps= 81 q=-1.0 Lsize=   33223kB time=00:00:49.74 bitrate=5470.7kbits/s speed=2.69x    
[AVIOContext @ 0x559cfe6bc0c0] Statistics: 0 seeks, 36 writeouts
video:32388kB audio:780kB subtitle:0kB other streams:0kB global headers:0kB muxing overhead: 0.165393%
Input file #0 (/var/www/html/project/media/video/original/Faenza.m4v):
  Input stream #0:0 (audio): 2334 packets read (729076 bytes); 2332 frames decoded (2387904 samples); 
  Input stream #0:1 (video): 1492 packets read (43471805 bytes); 1492 frames decoded; 
  Input stream #0:2 (video): 1 packets read (162031 bytes); 
  Total: 3827 packets (44362912 bytes) demuxed
Input file #1 (/var/www/html/project/static/images/templates/logo.png):
  Input stream #1:0 (video): 1 packets read (111578 bytes); 1 frames decoded; 
  Total: 1 packets (111578 bytes) demuxed
Output file #0 (/var/www/html/project/media/video/watermarks/Faenza.mp4):
  Output stream #0:0 (video): 1492 frames encoded; 1492 packets muxed (33165771 bytes); 
  Output stream #0:1 (audio): 2332 frames encoded (2387904 samples); 2333 packets muxed (798263 bytes); 
  Total: 3825 packets (33964034 bytes) muxed
[AVIOContext @ 0x559cfe73dec0] Statistics: 2 seeks, 133 writeouts
[libx264 @ 0x559cfe733880] frame I:9     Avg QP:17.67  size:109663
[libx264 @ 0x559cfe733880] frame P:390   Avg QP:20.79  size: 45900
[libx264 @ 0x559cfe733880] frame B:1093  Avg QP:23.90  size: 13062
[libx264 @ 0x559cfe733880] consecutive B-frames:  0.9%  2.9%  3.6% 92.5%
[libx264 @ 0x559cfe733880] mb I  I16..4:  2.2% 14.1% 83.7%
[libx264 @ 0x559cfe733880] mb P  I16..4:  2.1% 15.6% 14.7%  P16..4: 25.2% 20.4% 19.9%  0.0%  0.0%    skip: 2.1%
[libx264 @ 0x559cfe733880] mb B  I16..4:  0.7%  3.8%  2.4%  B16..8: 26.7% 16.8%  3.5%  direct:11.7%  skip:34.3%  L0:36.6% L1:40.7% BI:22.7%
[libx264 @ 0x559cfe733880] 8x8 transform intra:49.4% inter:34.4%
[libx264 @ 0x559cfe733880] coded y,uvDC,uvAC intra: 80.9% 44.0% 7.8% inter: 24.4% 16.7% 0.9%
[libx264 @ 0x559cfe733880] i16 v,h,dc,p: 29% 45% 16% 10%
[libx264 @ 0x559cfe733880] i8 v,h,dc,ddl,ddr,vr,hd,vl,hu: 11% 52% 10%  3%  4%  3%  7%  3%  7%
[libx264 @ 0x559cfe733880] i4 v,h,dc,ddl,ddr,vr,hd,vl,hu: 12% 50%  8%  4%  5%  3%  8%  3%  7%
[libx264 @ 0x559cfe733880] i8c dc,h,v,p: 46% 33% 14%  7%
[libx264 @ 0x559cfe733880] Weighted P-Frames: Y:6.7% UV:0.5%
[libx264 @ 0x559cfe733880] kb/s:5334.87
[aac @ 0x559cfe6efa00] Qavg: 194.775
[AVIOContext @ 0x559cfe6c5000] Statistics: 106331870 bytes read, 2956 seeks
[AVIOContext @ 0x559cfe743200] Statistics: 111578 bytes read, 0 seeks
